<svg xmlns="http://www.w3.org/2000/svg" viewBox="0 0 128 128" role="img" aria-label="Local Masker logo">
  <defs>
    <linearGradient id="bg" x1="20" y1="12" x2="110" y2="118" gradientUnits="userSpaceOnUse">
      <stop offset="0" stop-color="#11263A"/>
      <stop offset="1" stop-color="#07111F"/>
    </linearGradient>
    <linearGradient id="lock" x1="35" y1="28" x2="92" y2="100" gradientUnits="userSpaceOnUse">
      <stop offset="0" stop-color="#55DED1"/>
      <stop offset="1" stop-color="#1F8E88"/>
    </linearGradient>
    <filter id="shadow" x="-20%" y="-20%" width="140%" height="140%">
      <feDropShadow dx="0" dy="10" stdDeviation="10" flood-color="#000000" flood-opacity=".28"/>
    </filter>
  </defs>
  <rect width="128" height="128" rx="30" fill="url(#bg)"/>
  <circle cx="64" cy="64" r="44" fill="#3DD6C6" opacity=".08"/>
  <circle cx="64" cy="64" r="42" fill="none" stroke="#3DD6C6" stroke-opacity=".18" stroke-width="2"/>
  <g filter="url(#shadow)">
    <path d="M43 58V47c0-13 9-23 21-23s21 10 21 23v11h-9V47c0-8-5-14-12-14s-12 6-12 14v11h-9z" fill="none" stroke="#55DED1" stroke-width="7" stroke-linecap="round"/>
    <rect x="35" y="55" width="58" height="45" rx="12" fill="url(#lock)"/>
    <circle cx="64" cy="74" r="5" fill="#07111F" opacity=".62"/>
    <rect x="61" y="76" width="6" height="13" rx="3" fill="#07111F" opacity=".62"/>
  </g>
</svg>
